{
    "asset" : {
        "generator" : "Khronos glTF Blender I/O v1.2.75",
        "version" : "2.0"
    },
    "scene" : 0,
    "scenes" : [
        {
            "extras" : {},
            "name" : "Scene",
            "nodes" : [
                0,
                1
            ]
        }
    ],
    "nodes" : [
        {
            "name" : "Sun",
            "rotation" : [
                0,
                0,
                -0.2563866078853607,
                0.9665743112564087
            ],
            "translation" : [
                9.300311088562012,
                15.54412841796875,
                0
            ]
        },
        {
            "mesh" : 0,
            "name" : "tennisBall",
            "scale" : [
                0.011468237265944481,
                0.011391986161470413,
                0.011389549821615219
            ]
        }
    ],
    "materials" : [
        {
            "doubleSided" : true,
            "emissiveFactor" : [
                0,
                0,
                0
            ],
            "extras" : {},
            "name" : "vert",
            "pbrMetallicRoughness" : {
                "baseColorFactor" : [
                    0.9523930549621582,
                    1,
                    0.09064313024282455,
                    1
                ],
                "metallicFactor" : 0,
                "roughnessFactor" : 1
            }
        },
        {
            "doubleSided" : true,
            "emissiveFactor" : [
                0,
                0,
                0
            ],
            "extras" : {},
            "name" : "vert.001",
            "pbrMetallicRoughness" : {
                "baseColorFactor" : [
                    0.9714105129241943,
                    0.9586341977119446,
                    1,
                    1
                ],
                "metallicFactor" : 0,
                "roughnessFactor" : 0.5
            }
        }
    ],
    "meshes" : [
        {
            "name" : "Sphere",
            "primitives" : [
                {
                    "attributes" : {
                        "POSITION" : 0,
                        "NORMAL" : 1
                    },
                    "indices" : 2,
                    "material" : 0
                },
                {
                    "attributes" : {
                        "POSITION" : 3,
                        "NORMAL" : 4
                    },
                    "indices" : 5,
                    "material" : 1
                }
            ]
        }
    ],
    "accessors" : [
        {
            "bufferView" : 0,
            "componentType" : 5126,
            "count" : 12290,
            "max" : [
                2.9643614292144775,
                2.9845545291900635,
                2.985192060470581
            ],
            "min" : [
                -2.965059518814087,
                -2.9845542907714844,
                -2.9851937294006348
            ],
            "type" : "VEC3"
        },
        {
            "bufferView" : 1,
            "componentType" : 5126,
            "count" : 12290,
            "type" : "VEC3"
        },
        {
            "bufferView" : 2,
            "componentType" : 5123,
            "count" : 72192,
            "type" : "SCALAR"
        },
        {
            "bufferView" : 3,
            "componentType" : 5126,
            "count" : 2304,
            "max" : [
                2.28692889213562,
                2.104325294494629,
                2.1432347297668457
            ],
            "min" : [
                -2.098428964614868,
                -2.104325294494629,
                -2.1432347297668457
            ],
            "type" : "VEC3"
        },
        {
            "bufferView" : 4,
            "componentType" : 5126,
            "count" : 2304,
            "type" : "VEC3"
        },
        {
            "bufferView" : 5,
            "componentType" : 5123,
            "count" : 12288,
            "type" : "SCALAR"
        }
    ],
    "bufferViews" : [
        {
            "buffer" : 0,
            "byteLength" : 147480,
            "byteOffset" : 0
        },
        {
            "buffer" : 0,
            "byteLength" : 147480,
            "byteOffset" : 147480
        },
        {
            "buffer" : 0,
            "byteLength" : 144384,
            "byteOffset" : 294960
        },
        {
            "buffer" : 0,
            "byteLength" : 27648,
            "byteOffset" : 439344
        },
        {
            "buffer" : 0,
            "byteLength" : 27648,
            "byteOffset" : 466992
        },
        {
            "buffer" : 0,
            "byteLength" : 24576,
            "byteOffset" : 494640
        }
    ],
    "buffers" : [
        {
            "byteLength" : 519216,
            "uri" : "data:application/octet-stream;base64,"
        }
    ]
}
